<svg width="20" height="20" viewBox="0 0 20 20" fill="none" xmlns="http://www.w3.org/2000/svg">
<path opacity="0.987" fill-rule="evenodd" clip-rule="evenodd" d="M9.01131 1.32643C9.91756 1.22518 10.4538 1.22518 11.4276 1.32643C13.1512 1.58154 14.7491 2.37828 15.9901 3.60143C15.1515 4.3941 14.3239 5.19834 13.5076 6.01393C11.9442 4.68893 10.1992 4.38309 8.27256 5.09643C6.85923 5.74643 5.87506 6.79976 5.32006 8.25643C4.41311 7.58121 3.51797 6.89028 2.63506 6.18393C2.5737 6.15163 2.50362 6.1398 2.43506 6.15018C3.83756 3.44601 6.02923 1.83768 9.01006 1.32518" fill="#F44336"/>
<path opacity="0.997" fill-rule="evenodd" clip-rule="evenodd" d="M2.43257 6.14998C2.5034 6.13915 2.57049 6.1504 2.63382 6.18373C3.51674 6.89008 4.41187 7.58102 5.31882 8.25623C5.1761 8.82381 5.08614 9.40335 5.05007 9.98748C5.0809 10.5525 5.17049 11.1071 5.31882 11.6512L2.50007 13.895C1.27257 11.33 1.25007 8.74832 2.43257 6.14998Z" fill="#FFC107"/>
<path opacity="0.999" fill-rule="evenodd" clip-rule="evenodd" d="M15.8563 16.6129C14.9787 15.8389 14.0598 15.1128 13.1038 14.4379C14.0622 13.7612 14.6438 12.8329 14.8488 11.6529H10.1526V8.39166C12.8609 8.36916 15.568 8.39208 18.2738 8.46041C18.7872 11.2479 18.1943 13.7612 16.4951 16.0004C16.293 16.2152 16.079 16.4196 15.8563 16.6129Z" fill="#448AFF"/>
<path opacity="0.993" fill-rule="evenodd" clip-rule="evenodd" d="M5.31875 11.6528C6.34375 14.2003 8.22292 15.3895 10.9562 15.2203C11.7235 15.1315 12.4592 14.8635 13.1037 14.4378C14.0604 15.1145 14.9779 15.8395 15.8562 16.6128C14.4646 17.8634 12.6901 18.6054 10.8225 18.7178C10.3982 18.7518 9.97182 18.7518 9.5475 18.7178C6.36583 18.3428 4.01667 16.7353 2.5 13.8953L5.31875 11.6528Z" fill="#43A047"/>
</svg>
